<svg xmlns="http://www.w3.org/2000/svg" xmlns:xlink="http://www.w3.org/1999/xlink" width="150" zoomAndPan="magnify" viewBox="0 0 112.5 52.499999" height="70" preserveAspectRatio="xMidYMid meet" version="1.0"><defs><g/><clipPath id="654b251fdb"><path d="M 14.03125 7.421875 L 96.496094 7.421875 L 96.496094 27 L 14.03125 27 Z M 14.03125 7.421875 " clip-rule="nonzero"/></clipPath><clipPath id="3e29f453d0"><path d="M 64 28 L 96.496094 28 L 96.496094 28.964844 L 64 28.964844 Z M 64 28 " clip-rule="nonzero"/></clipPath><clipPath id="034dc4bf9e"><path d="M 14.03125 28 L 46 28 L 46 28.964844 L 14.03125 28.964844 Z M 14.03125 28 " clip-rule="nonzero"/></clipPath></defs><g fill="#31323c" fill-opacity="1"><g transform="translate(16.6875, 36.535292)"><g><path d="M 0.121094 0 L 1.171875 0 L 1.648438 -1.324219 L 4.113281 -1.324219 L 4.582031 0 L 5.625 0 L 3.246094 -6.097656 L 2.515625 -6.097656 Z M 1.976562 -2.164062 L 2.882812 -4.675781 L 3.789062 -2.164062 Z M 1.976562 -2.164062 "/></g></g></g><g fill="#31323c" fill-opacity="1"><g transform="translate(24.536716, 36.535292)"><g><path d="M 3.296875 0.0859375 C 4.175781 0.0859375 4.855469 -0.34375 5.160156 -0.9375 L 5.226562 0 L 6 0 L 6 -3.230469 L 3.679688 -3.230469 L 3.679688 -2.457031 L 5.070312 -2.457031 C 4.980469 -1.414062 4.21875 -0.785156 3.296875 -0.785156 C 1.941406 -0.785156 1.367188 -1.832031 1.367188 -3.09375 C 1.367188 -4.277344 1.941406 -5.335938 3.277344 -5.335938 C 4.082031 -5.335938 4.714844 -4.945312 5.027344 -4.121094 L 5.890625 -4.484375 C 5.402344 -5.597656 4.46875 -6.195312 3.289062 -6.195312 C 1.324219 -6.195312 0.410156 -4.730469 0.410156 -3.050781 C 0.410156 -1.367188 1.328125 0.0859375 3.296875 0.0859375 Z M 3.296875 0.0859375 "/></g></g></g><g fill="#31323c" fill-opacity="1"><g transform="translate(33.222762, 36.535292)"><g/></g></g><g fill="#31323c" fill-opacity="1"><g transform="translate(37.513293, 36.535292)"><g><path d="M 0.824219 0.0078125 L 1.796875 0.0078125 L 1.796875 -2.644531 L 2.609375 -2.644531 L 4.121094 0.0078125 L 5.234375 0.0078125 L 3.550781 -2.746094 C 4.265625 -2.960938 4.777344 -3.546875 4.777344 -4.332031 C 4.777344 -5.445312 3.84375 -6.097656 2.726562 -6.097656 L 0.824219 -6.097656 Z M 1.804688 -3.457031 L 1.804688 -5.230469 L 2.734375 -5.230469 C 3.390625 -5.230469 3.820312 -4.882812 3.820312 -4.320312 C 3.820312 -3.800781 3.433594 -3.480469 2.824219 -3.457031 Z M 1.804688 -3.457031 "/></g></g></g><g fill="#31323c" fill-opacity="1"><g transform="translate(45.021737, 36.535292)"><g><path d="M 0.824219 0 L 4.851562 0 L 4.851562 -0.90625 L 1.796875 -0.90625 L 1.796875 -2.613281 L 4.574219 -2.613281 L 4.574219 -3.484375 L 1.796875 -3.484375 L 1.796875 -5.222656 L 4.851562 -5.222656 L 4.851562 -6.097656 L 0.824219 -6.097656 Z M 0.824219 0 "/></g></g></g><g fill="#31323c" fill-opacity="1"><g transform="translate(52.487045, 36.535292)"><g><path d="M 0.121094 0 L 1.171875 0 L 1.648438 -1.324219 L 4.113281 -1.324219 L 4.582031 0 L 5.625 0 L 3.246094 -6.097656 L 2.515625 -6.097656 Z M 1.976562 -2.164062 L 2.882812 -4.675781 L 3.789062 -2.164062 Z M 1.976562 -2.164062 "/></g></g></g><g fill="#31323c" fill-opacity="1"><g transform="translate(60.336259, 36.535292)"><g><path d="M 0.824219 0 L 4.402344 0 L 4.402344 -0.90625 L 1.796875 -0.90625 L 1.796875 -6.097656 L 0.824219 -6.097656 Z M 0.824219 0 "/></g></g></g><g fill="#31323c" fill-opacity="1"><g transform="translate(66.990618, 36.535292)"><g><path d="M 2.097656 0 L 3.066406 0 L 3.066406 -5.246094 L 5.023438 -5.246094 L 5.023438 -6.097656 L 0.140625 -6.097656 L 0.140625 -5.246094 L 2.097656 -5.246094 Z M 2.097656 0 "/></g></g></g><g fill="#31323c" fill-opacity="1"><g transform="translate(74.257503, 36.535292)"><g><path d="M 3.285156 0.0859375 C 5.253906 0.0859375 6.164062 -1.375 6.164062 -3.050781 C 6.164062 -4.71875 5.253906 -6.1875 3.285156 -6.1875 C 1.320312 -6.1875 0.410156 -4.71875 0.410156 -3.050781 C 0.410156 -1.375 1.320312 0.0859375 3.285156 0.0859375 Z M 3.285156 -0.777344 C 1.929688 -0.777344 1.414062 -1.851562 1.414062 -3.050781 C 1.414062 -4.246094 1.929688 -5.320312 3.285156 -5.320312 C 4.648438 -5.320312 5.164062 -4.246094 5.164062 -3.050781 C 5.164062 -1.851562 4.648438 -0.777344 3.285156 -0.777344 Z M 3.285156 -0.777344 "/></g></g></g><g fill="#31323c" fill-opacity="1"><g transform="translate(82.934921, 36.535292)"><g><path d="M 0.824219 0.0078125 L 1.796875 0.0078125 L 1.796875 -2.644531 L 2.609375 -2.644531 L 4.121094 0.0078125 L 5.234375 0.0078125 L 3.550781 -2.746094 C 4.265625 -2.960938 4.777344 -3.546875 4.777344 -4.332031 C 4.777344 -5.445312 3.84375 -6.097656 2.726562 -6.097656 L 0.824219 -6.097656 Z M 1.804688 -3.457031 L 1.804688 -5.230469 L 2.734375 -5.230469 C 3.390625 -5.230469 3.820312 -4.882812 3.820312 -4.320312 C 3.820312 -3.800781 3.433594 -3.480469 2.824219 -3.457031 Z M 1.804688 -3.457031 "/></g></g></g><g fill="#31323c" fill-opacity="1"><g transform="translate(90.443368, 36.535292)"><g><path d="M 2.507812 0.0703125 C 3.644531 0.0703125 4.5625 -0.621094 4.5625 -1.746094 C 4.5625 -3.753906 1.613281 -3.386719 1.613281 -4.605469 C 1.613281 -5.042969 1.988281 -5.332031 2.445312 -5.332031 C 2.878906 -5.332031 3.269531 -5.101562 3.492188 -4.664062 L 4.28125 -5.152344 C 3.875 -5.867188 3.214844 -6.1875 2.472656 -6.1875 C 1.488281 -6.1875 0.652344 -5.582031 0.652344 -4.546875 C 0.652344 -2.601562 3.597656 -3.023438 3.597656 -1.664062 C 3.597656 -1.136719 3.195312 -0.789062 2.519531 -0.789062 C 1.851562 -0.789062 1.273438 -1.140625 1.191406 -1.921875 L 0.246094 -1.675781 C 0.429688 -0.503906 1.453125 0.0703125 2.507812 0.0703125 Z M 2.507812 0.0703125 "/></g></g></g><g fill="#31323c" fill-opacity="1"><g transform="translate(10.495451, 43.337419)"><g><path d="M 0.40625 0.00390625 L 0.882812 0.00390625 L 0.882812 -1.300781 L 1.285156 -1.300781 L 2.027344 0.00390625 L 2.574219 0.00390625 L 1.746094 -1.347656 C 2.097656 -1.457031 2.347656 -1.742188 2.347656 -2.128906 C 2.347656 -2.675781 1.890625 -3 1.339844 -3 L 0.40625 -3 Z M 0.886719 -1.699219 L 0.886719 -2.570312 L 1.34375 -2.570312 C 1.667969 -2.570312 1.878906 -2.402344 1.878906 -2.125 C 1.878906 -1.871094 1.6875 -1.710938 1.390625 -1.699219 Z M 0.886719 -1.699219 "/></g></g></g><g fill="#31323c" fill-opacity="1"><g transform="translate(15.821012, 43.337419)"><g><path d="M 0.40625 0 L 2.386719 0 L 2.386719 -0.445312 L 0.882812 -0.445312 L 0.882812 -1.285156 L 2.25 -1.285156 L 2.25 -1.714844 L 0.882812 -1.714844 L 0.882812 -2.566406 L 2.386719 -2.566406 L 2.386719 -3 L 0.40625 -3 Z M 0.40625 0 "/></g></g></g><g fill="#31323c" fill-opacity="1"><g transform="translate(21.12537, 43.337419)"><g><path d="M 0.0585938 0 L 0.578125 0 L 0.808594 -0.652344 L 2.023438 -0.652344 L 2.253906 0 L 2.765625 0 L 1.59375 -3 L 1.238281 -3 Z M 0.972656 -1.066406 L 1.417969 -2.300781 L 1.863281 -1.066406 Z M 0.972656 -1.066406 "/></g></g></g><g fill="#31323c" fill-opacity="1"><g transform="translate(26.618446, 43.337419)"><g><path d="M 0.40625 0 L 2.164062 0 L 2.164062 -0.445312 L 0.882812 -0.445312 L 0.882812 -3 L 0.40625 -3 Z M 0.40625 0 "/></g></g></g><g fill="#31323c" fill-opacity="1"><g transform="translate(31.52416, 43.337419)"><g/></g></g><g fill="#31323c" fill-opacity="1"><g transform="translate(35.267872, 43.337419)"><g><path d="M 0.40625 0 L 2.386719 0 L 2.386719 -0.445312 L 0.882812 -0.445312 L 0.882812 -1.285156 L 2.25 -1.285156 L 2.25 -1.714844 L 0.882812 -1.714844 L 0.882812 -2.566406 L 2.386719 -2.566406 L 2.386719 -3 L 0.40625 -3 Z M 0.40625 0 "/></g></g></g><g fill="#31323c" fill-opacity="1"><g transform="translate(40.572228, 43.337419)"><g><path d="M 1.234375 0.0351562 C 1.792969 0.0351562 2.242188 -0.304688 2.242188 -0.859375 C 2.242188 -1.847656 0.792969 -1.664062 0.792969 -2.265625 C 0.792969 -2.480469 0.976562 -2.621094 1.203125 -2.621094 C 1.414062 -2.621094 1.609375 -2.507812 1.714844 -2.292969 L 2.105469 -2.535156 C 1.90625 -2.886719 1.582031 -3.042969 1.214844 -3.042969 C 0.730469 -3.042969 0.320312 -2.746094 0.320312 -2.238281 C 0.320312 -1.28125 1.769531 -1.488281 1.769531 -0.820312 C 1.769531 -0.558594 1.570312 -0.386719 1.238281 -0.386719 C 0.910156 -0.386719 0.625 -0.558594 0.585938 -0.945312 L 0.121094 -0.824219 C 0.210938 -0.25 0.714844 0.0351562 1.234375 0.0351562 Z M 1.234375 0.0351562 "/></g></g></g><g fill="#31323c" fill-opacity="1"><g transform="translate(45.632733, 43.337419)"><g><path d="M 1.03125 0 L 1.507812 0 L 1.507812 -2.582031 L 2.46875 -2.582031 L 2.46875 -3 L 0.0703125 -3 L 0.0703125 -2.582031 L 1.03125 -2.582031 Z M 1.03125 0 "/></g></g></g><g fill="#31323c" fill-opacity="1"><g transform="translate(50.839549, 43.337419)"><g><path d="M 0.0585938 0 L 0.578125 0 L 0.808594 -0.652344 L 2.023438 -0.652344 L 2.253906 0 L 2.765625 0 L 1.59375 -3 L 1.238281 -3 Z M 0.972656 -1.066406 L 1.417969 -2.300781 L 1.863281 -1.066406 Z M 0.972656 -1.066406 "/></g></g></g><g fill="#31323c" fill-opacity="1"><g transform="translate(56.332624, 43.337419)"><g><path d="M 1.03125 0 L 1.507812 0 L 1.507812 -2.582031 L 2.46875 -2.582031 L 2.46875 -3 L 0.0703125 -3 L 0.0703125 -2.582031 L 1.03125 -2.582031 Z M 1.03125 0 "/></g></g></g><g fill="#31323c" fill-opacity="1"><g transform="translate(61.53944, 43.337419)"><g><path d="M 0.40625 0 L 2.386719 0 L 2.386719 -0.445312 L 0.882812 -0.445312 L 0.882812 -1.285156 L 2.25 -1.285156 L 2.25 -1.714844 L 0.882812 -1.714844 L 0.882812 -2.566406 L 2.386719 -2.566406 L 2.386719 -3 L 0.40625 -3 Z M 0.40625 0 "/></g></g></g><g fill="#31323c" fill-opacity="1"><g transform="translate(66.843796, 43.337419)"><g/></g></g><g fill="#31323c" fill-opacity="1"><g transform="translate(70.587508, 43.337419)"><g><path d="M 0.0585938 0 L 0.578125 0 L 0.808594 -0.652344 L 2.023438 -0.652344 L 2.253906 0 L 2.765625 0 L 1.59375 -3 L 1.238281 -3 Z M 0.972656 -1.066406 L 1.417969 -2.300781 L 1.863281 -1.066406 Z M 0.972656 -1.066406 "/></g></g></g><g fill="#31323c" fill-opacity="1"><g transform="translate(76.080583, 43.337419)"><g><path d="M 1.621094 0.0429688 C 2.054688 0.0429688 2.386719 -0.167969 2.539062 -0.460938 L 2.570312 0 L 2.953125 0 L 2.953125 -1.589844 L 1.808594 -1.589844 L 1.808594 -1.207031 L 2.492188 -1.207031 C 2.449219 -0.695312 2.074219 -0.386719 1.621094 -0.386719 C 0.953125 -0.386719 0.671875 -0.902344 0.671875 -1.519531 C 0.671875 -2.101562 0.953125 -2.625 1.613281 -2.625 C 2.007812 -2.625 2.320312 -2.429688 2.472656 -2.027344 L 2.894531 -2.203125 C 2.65625 -2.753906 2.199219 -3.046875 1.617188 -3.046875 C 0.652344 -3.046875 0.203125 -2.324219 0.203125 -1.5 C 0.203125 -0.671875 0.652344 0.0429688 1.621094 0.0429688 Z M 1.621094 0.0429688 "/></g></g></g><g fill="#31323c" fill-opacity="1"><g transform="translate(81.985024, 43.337419)"><g><path d="M 0.40625 0 L 2.386719 0 L 2.386719 -0.445312 L 0.882812 -0.445312 L 0.882812 -1.285156 L 2.25 -1.285156 L 2.25 -1.714844 L 0.882812 -1.714844 L 0.882812 -2.566406 L 2.386719 -2.566406 L 2.386719 -3 L 0.40625 -3 Z M 0.40625 0 "/></g></g></g><g fill="#31323c" fill-opacity="1"><g transform="translate(87.28938, 43.337419)"><g><path d="M 0.40625 0 L 0.867188 0 L 0.867188 -2.273438 L 2.128906 0 L 2.65625 0 L 2.65625 -3 L 2.195312 -3 L 2.195312 -0.730469 L 0.925781 -3 L 0.40625 -3 Z M 0.40625 0 "/></g></g></g><g fill="#31323c" fill-opacity="1"><g transform="translate(93.017829, 43.337419)"><g><path d="M 1.617188 0.0429688 C 2.207031 0.0429688 2.667969 -0.257812 2.90625 -0.800781 L 2.464844 -0.984375 C 2.300781 -0.558594 2.011719 -0.40625 1.625 -0.40625 C 0.953125 -0.40625 0.671875 -0.902344 0.671875 -1.515625 C 0.671875 -2.101562 0.949219 -2.597656 1.613281 -2.597656 C 2.003906 -2.597656 2.339844 -2.445312 2.457031 -2.027344 L 2.902344 -2.203125 C 2.664062 -2.765625 2.203125 -3.046875 1.625 -3.046875 C 0.648438 -3.046875 0.203125 -2.324219 0.203125 -1.503906 C 0.203125 -0.671875 0.65625 0.0429688 1.617188 0.0429688 Z M 1.617188 0.0429688 "/></g></g></g><g fill="#31323c" fill-opacity="1"><g transform="translate(98.714471, 43.337419)"><g><path d="M 1.15625 0 L 1.644531 0 L 1.644531 -1.167969 L 2.765625 -3 L 2.191406 -3 L 1.394531 -1.632812 L 0.601562 -3 L 0.03125 -3 L 1.15625 -1.167969 Z M 1.15625 0 "/></g></g></g><path fill="#31323c" d="M 39.429688 26.414062 L 55.132812 10.480469 L 70.847656 26.414062 L 67.632812 26.414062 L 67.632812 24.8125 L 55.132812 12.140625 L 42.738281 24.71875 L 42.738281 26.414062 Z M 39.429688 26.414062 " fill-opacity="1" fill-rule="evenodd"/><g clip-path="url(#654b251fdb)"><path fill="#bc986b" d="M 24.902344 15.410156 L 34.710938 25.363281 L 37.484375 25.363281 L 55.164062 7.421875 L 72.84375 25.363281 L 75.617188 25.363281 L 85.421875 15.410156 L 96.265625 26.414062 L 94.382812 26.414062 L 85.425781 17.320312 L 76.464844 26.414062 C 74.976562 26.414062 73.488281 26.414062 71.996094 26.414062 L 55.164062 9.332031 L 38.332031 26.414062 C 36.839844 26.414062 35.351562 26.414062 33.863281 26.414062 L 24.902344 17.324219 L 15.945312 26.414062 L 14.0625 26.414062 Z M 24.902344 15.410156 " fill-opacity="1" fill-rule="evenodd"/></g><path fill="#bc986b" d="M 34.398438 15.644531 L 40.464844 9.523438 L 46.390625 15.503906 L 45.773438 16.128906 L 40.464844 10.773438 L 35.5625 15.722656 Z M 34.398438 15.644531 " fill-opacity="1" fill-rule="evenodd"/><path fill="#31323c" d="M 24.890625 17.808594 L 33.265625 26.414062 L 32.046875 26.414062 L 24.890625 19.019531 L 17.597656 26.414062 L 16.40625 26.414062 Z M 24.890625 17.808594 " fill-opacity="1" fill-rule="evenodd"/><path fill="#bc986b" d="M 25.769531 15.464844 L 45.1875 16.71875 L 37.242188 24.785156 L 34.953125 24.785156 Z M 25.769531 15.464844 " fill-opacity="1" fill-rule="evenodd"/><path fill="#bc986b" d="M 40.941406 9.59375 L 50.753906 11.078125 L 46.589844 15.296875 Z M 40.941406 9.59375 " fill-opacity="1" fill-rule="evenodd"/><path fill="#31323c" d="M 24.921875 25.421875 L 23.710938 25.421875 L 23.710938 24.210938 L 24.921875 24.210938 Z M 26.5625 24.210938 L 26.5625 25.421875 L 25.351562 25.421875 L 25.351562 24.210938 Z M 25.351562 22.570312 L 26.5625 22.570312 L 26.5625 23.78125 L 25.351562 23.78125 Z M 23.710938 22.570312 L 24.921875 22.570312 L 24.921875 23.78125 L 23.710938 23.78125 Z M 23.710938 22.570312 " fill-opacity="1" fill-rule="evenodd"/><path fill="#31323c" d="M 40.648438 15.371094 L 39.953125 15.371094 L 39.953125 14.675781 L 40.648438 14.675781 Z M 41.59375 14.675781 L 41.59375 15.375 L 40.894531 15.375 L 40.894531 14.675781 Z M 40.894531 13.734375 L 41.59375 13.734375 L 41.59375 14.429688 L 40.894531 14.429688 Z M 39.953125 13.734375 L 40.648438 13.734375 L 40.648438 14.429688 L 39.953125 14.429688 Z M 39.953125 13.734375 " fill-opacity="1" fill-rule="evenodd"/><path fill="#31323c" d="M 17.160156 26.414062 L 18.363281 26.414062 L 18.363281 25.328125 Z M 17.160156 26.414062 " fill-opacity="1" fill-rule="evenodd"/><path fill="#31323c" d="M 32.480469 26.414062 L 31.277344 26.414062 L 31.277344 25.328125 Z M 32.480469 26.414062 " fill-opacity="1" fill-rule="evenodd"/><path fill="#bc986b" d="M 75.925781 15.644531 L 69.863281 9.523438 L 63.9375 15.503906 L 64.554688 16.128906 L 69.863281 10.773438 L 74.761719 15.722656 Z M 75.925781 15.644531 " fill-opacity="1" fill-rule="evenodd"/><path fill="#31323c" d="M 85.4375 17.808594 L 77.0625 26.414062 L 78.277344 26.414062 L 85.4375 19.019531 L 92.730469 26.414062 L 93.921875 26.414062 Z M 85.4375 17.808594 " fill-opacity="1" fill-rule="evenodd"/><path fill="#bc986b" d="M 84.554688 15.464844 L 65.140625 16.71875 L 73.085938 24.785156 L 75.375 24.785156 Z M 84.554688 15.464844 " fill-opacity="1" fill-rule="evenodd"/><path fill="#bc986b" d="M 69.382812 9.59375 L 59.574219 11.078125 L 63.734375 15.296875 Z M 69.382812 9.59375 " fill-opacity="1" fill-rule="evenodd"/><path fill="#31323c" d="M 85.402344 25.421875 L 86.617188 25.421875 L 86.617188 24.210938 L 85.402344 24.210938 Z M 83.761719 24.210938 L 83.761719 25.421875 L 84.972656 25.421875 L 84.972656 24.210938 Z M 84.972656 22.570312 L 83.761719 22.570312 L 83.761719 23.78125 L 84.972656 23.78125 Z M 86.617188 22.570312 L 85.402344 22.570312 L 85.402344 23.78125 L 86.617188 23.78125 Z M 86.617188 22.570312 " fill-opacity="1" fill-rule="evenodd"/><path fill="#31323c" d="M 69.675781 15.371094 L 70.375 15.371094 L 70.375 14.675781 L 69.675781 14.675781 Z M 68.734375 14.675781 L 68.734375 15.375 L 69.433594 15.375 L 69.433594 14.675781 Z M 69.433594 13.734375 L 68.734375 13.734375 L 68.734375 14.429688 L 69.433594 14.429688 Z M 70.375 13.734375 L 69.675781 13.734375 L 69.675781 14.429688 L 70.375 14.429688 Z M 70.375 13.734375 " fill-opacity="1" fill-rule="evenodd"/><path fill="#31323c" d="M 93.167969 26.414062 L 91.964844 26.414062 L 91.964844 25.328125 Z M 93.167969 26.414062 " fill-opacity="1" fill-rule="evenodd"/><path fill="#31323c" d="M 77.84375 26.414062 L 79.046875 26.414062 L 79.046875 25.328125 Z M 77.84375 26.414062 " fill-opacity="1" fill-rule="evenodd"/><path fill="#31323c" d="M 54.792969 24.152344 L 52.820312 24.152344 L 52.820312 22.179688 L 54.792969 22.179688 Z M 57.460938 22.179688 L 57.460938 24.152344 L 55.488281 24.152344 L 55.488281 22.179688 Z M 55.488281 19.507812 L 57.460938 19.507812 L 57.460938 21.480469 L 55.488281 21.480469 Z M 52.816406 19.507812 L 54.789062 19.507812 L 54.789062 21.480469 L 52.816406 21.480469 Z M 52.816406 19.507812 " fill-opacity="1" fill-rule="evenodd"/><g clip-path="url(#3e29f453d0)"><path fill="#bc986b" d="M 64.453125 28.027344 L 96.265625 28.027344 L 96.265625 28.90625 L 64.453125 28.90625 Z M 64.453125 28.027344 " fill-opacity="1" fill-rule="evenodd"/></g><g clip-path="url(#034dc4bf9e)"><path fill="#bc986b" d="M 14.0625 28.027344 L 45.871094 28.027344 L 45.871094 28.90625 L 14.0625 28.90625 Z M 14.0625 28.027344 " fill-opacity="1" fill-rule="evenodd"/></g></svg>